<svg width="78" height="78" viewBox="0 0 78 78" fill="none" xmlns="http://www.w3.org/2000/svg">
<path d="M41.4782 67.8542V31.3066H36.2935V67.8542L27.8873 59.448L24.221 63.1141L38.8859 77.7791L53.5507 63.1141L49.8844 59.448L41.4782 67.8542Z" fill="#55CD5B"/>
<path d="M62.2174 23.5298C62.2174 10.665 51.7506 0.198242 38.8859 0.198242C26.0211 0.198242 15.5543 10.665 15.5543 23.5298C11.4291 23.5298 7.47277 25.1685 4.55576 28.0855C1.63876 31.0025 0 34.9588 0 39.0841C0 43.2094 1.63876 47.1657 4.55576 50.0827C7.47277 52.9997 11.4291 54.6385 15.5543 54.6385H28.5163V49.4537H15.5543C12.8042 49.4537 10.1666 48.3612 8.22196 46.4165C6.27729 44.4718 5.18478 41.8343 5.18478 39.0841C5.18478 36.3339 6.27729 33.6964 8.22196 31.7517C10.1666 29.8071 12.8042 28.7145 15.5543 28.7145H20.7391V23.5298C20.7391 18.7169 22.651 14.1013 26.0542 10.6981C29.4574 7.29491 34.0731 5.38302 38.8859 5.38302C43.6987 5.38302 48.3144 7.29491 51.7175 10.6981C55.1207 14.1013 57.0326 18.7169 57.0326 23.5298V28.7145H62.2174C64.9676 28.7145 67.6051 29.8071 69.5498 31.7517C71.4944 33.6964 72.5869 36.3339 72.5869 39.0841C72.5869 41.8343 71.4944 44.4718 69.5498 46.4165C67.6051 48.3612 64.9676 49.4537 62.2174 49.4537H49.2554V54.6385H62.2174C66.3427 54.6385 70.299 52.9997 73.216 50.0827C76.133 47.1657 77.7717 43.2094 77.7717 39.0841C77.7717 34.9588 76.133 31.0025 73.216 28.0855C70.299 25.1685 66.3427 23.5298 62.2174 23.5298Z" fill="#55CD5B"/>
</svg>
