<svg width="171" height="38" viewBox="0 0 171 38" fill="none" xmlns="http://www.w3.org/2000/svg">
<path fill-rule="evenodd" clip-rule="evenodd" d="M36 20C36 29.9411 27.9411 38 18 38C13.3938 38 9.1917 36.2698 6.00814 33.4239L7.85174 32.3704C10.6132 34.6385 14.1476 36 18 36C26.8366 36 34 28.8366 34 20C34 17.2898 33.3262 14.737 32.1369 12.5H34.3679C35.4158 14.7832 36 17.3234 36 20ZM4.38566 28.4096C2.87309 25.966 2 23.085 2 20C2 11.1634 9.16344 4 18 4C22.2198 4 26.0581 5.63361 28.917 8.30292L30.9967 7.54665C27.7204 4.12831 23.1088 2 18 2C8.05887 2 0 10.0589 0 20C0 23.4954 0.996332 26.7582 2.7205 29.5197L4.38566 28.4096Z" fill="white"/>
<path d="M32 10L30.5 15C30.5 15 36.5 12.5 37 12.5C37.5 12.5 32 10 32 10Z" fill="white"/>
<path d="M6.17639 31.2189L6.29904 26.0002C6.29904 26.0002 1.17507 29.9996 0.692918 30.132C0.210761 30.2643 6.17639 31.2189 6.17639 31.2189Z" fill="white"/>
<path d="M9.5522 28.4447C8.58322 27.445 9.63158 26.0713 12.4767 24.6126L14.2669 23.6947L14.9643 22.1204C15.3479 21.2546 15.9204 19.8418 16.2365 18.9809L16.8113 17.4156L16.4152 16.2572C15.9282 14.8329 15.7545 12.6925 16.0635 11.9228C16.4821 10.8803 17.853 10.9873 18.3958 12.1048C18.8197 12.9776 18.7764 14.5581 18.2739 16.5515L17.8619 18.1857L18.2248 18.8212C18.4244 19.1707 19.0073 20.0007 19.5203 20.6655L20.4843 21.9026L21.6839 21.7411C25.4947 21.2281 26.8 22.1001 26.8 23.3503C26.8 24.9282 23.8077 25.0584 21.2948 23.2376C20.7295 22.8279 20.3412 22.4209 20.3412 22.4209C20.3412 22.4209 18.767 22.7515 17.9919 22.9671C17.1919 23.1895 16.7928 23.3289 15.6209 23.737C15.6209 23.737 15.2097 24.353 14.9417 24.8009C13.9449 26.4671 12.781 27.8479 11.9498 28.3505C11.0191 28.9132 10.0434 28.9515 9.5522 28.4447ZM11.0729 27.8843C11.6175 27.5369 12.72 26.1917 13.4831 24.9432L13.7921 24.4377L12.3852 25.1675C10.2124 26.2946 9.2183 27.3569 9.7352 27.9995C10.0256 28.3605 10.3729 28.3305 11.0729 27.8843ZM25.1869 23.797C25.7197 23.412 25.6423 22.6362 25.04 22.3234C24.5713 22.08 24.1935 22.03 22.9758 22.0485C22.2276 22.1011 21.0243 22.2567 20.8204 22.304C20.8204 22.304 21.4814 22.7754 21.7749 22.9486C22.1656 23.1788 23.1149 23.6061 23.808 23.825C24.4918 24.0409 24.8872 24.0182 25.1869 23.797V23.797ZM19.5118 21.3635C19.1894 21.0138 18.6412 20.284 18.2935 19.7417C17.8388 19.1265 17.6108 18.6925 17.6108 18.6925C17.6108 18.6925 17.2785 19.7953 17.0059 20.4589L16.1553 22.628L15.9086 23.1201C15.9086 23.1201 17.2197 22.6765 17.8868 22.4968C18.5934 22.3064 20.0273 22.0155 20.0273 22.0155L19.5118 21.3635ZM17.683 13.7968C17.7652 13.0848 17.8001 12.3739 17.5784 12.0154C16.9633 11.3217 16.221 11.9002 16.3468 13.5493C16.3891 14.1041 16.5226 15.0525 16.7012 15.637L17.026 16.6998L17.2545 15.8993C17.3802 15.4591 17.573 14.5129 17.683 13.7968Z" fill="#FF2116"/>
<path d="M51.84 17.6C51.84 15.952 52.208 14.48 52.944 13.184C53.696 11.872 54.712 10.856 55.992 10.136C57.288 9.4 58.736 9.032 60.336 9.032C62.208 9.032 63.848 9.512 65.256 10.472C66.664 11.432 67.648 12.76 68.208 14.456H64.344C63.96 13.656 63.416 13.056 62.712 12.656C62.024 12.256 61.224 12.056 60.312 12.056C59.336 12.056 58.464 12.288 57.696 12.752C56.944 13.2 56.352 13.84 55.92 14.672C55.504 15.504 55.296 16.48 55.296 17.6C55.296 18.704 55.504 19.68 55.92 20.528C56.352 21.36 56.944 22.008 57.696 22.472C58.464 22.92 59.336 23.144 60.312 23.144C61.224 23.144 62.024 22.944 62.712 22.544C63.416 22.128 63.96 21.52 64.344 20.72H68.208C67.648 22.432 66.664 23.768 65.256 24.728C63.864 25.672 62.224 26.144 60.336 26.144C58.736 26.144 57.288 25.784 55.992 25.064C54.712 24.328 53.696 23.312 52.944 22.016C52.208 20.72 51.84 19.248 51.84 17.6ZM76.9819 26.216C75.7019 26.216 74.5499 25.936 73.5259 25.376C72.5019 24.8 71.6939 23.992 71.1019 22.952C70.5259 21.912 70.2379 20.712 70.2379 19.352C70.2379 17.992 70.5339 16.792 71.1259 15.752C71.7339 14.712 72.5579 13.912 73.5979 13.352C74.6379 12.776 75.7979 12.488 77.0779 12.488C78.3579 12.488 79.5179 12.776 80.5579 13.352C81.5979 13.912 82.4139 14.712 83.0059 15.752C83.6139 16.792 83.9179 17.992 83.9179 19.352C83.9179 20.712 83.6059 21.912 82.9819 22.952C82.3739 23.992 81.5419 24.8 80.4859 25.376C79.4459 25.936 78.2779 26.216 76.9819 26.216ZM76.9819 23.288C77.5899 23.288 78.1579 23.144 78.6859 22.856C79.2299 22.552 79.6619 22.104 79.9819 21.512C80.3019 20.92 80.4619 20.2 80.4619 19.352C80.4619 18.088 80.1259 17.12 79.4539 16.448C78.7979 15.76 77.9899 15.416 77.0299 15.416C76.0699 15.416 75.2619 15.76 74.6059 16.448C73.9659 17.12 73.6459 18.088 73.6459 19.352C73.6459 20.616 73.9579 21.592 74.5819 22.28C75.2219 22.952 76.0219 23.288 76.9819 23.288ZM93.7506 12.512C95.3346 12.512 96.6146 13.016 97.5906 14.024C98.5666 15.016 99.0546 16.408 99.0546 18.2V26H95.6946V18.656C95.6946 17.6 95.4306 16.792 94.9026 16.232C94.3746 15.656 93.6546 15.368 92.7426 15.368C91.8146 15.368 91.0786 15.656 90.5346 16.232C90.0066 16.792 89.7426 17.6 89.7426 18.656V26H86.3826V12.704H89.7426V14.36C90.1906 13.784 90.7586 13.336 91.4466 13.016C92.1506 12.68 92.9186 12.512 93.7506 12.512ZM107.794 22.904L111.154 12.704H114.73L109.81 26H105.73L100.834 12.704H104.434L107.794 22.904ZM128.977 19.064C128.977 19.544 128.945 19.976 128.881 20.36H119.161C119.241 21.32 119.577 22.072 120.169 22.616C120.761 23.16 121.489 23.432 122.353 23.432C123.601 23.432 124.489 22.896 125.017 21.824H128.641C128.257 23.104 127.521 24.16 126.433 24.992C125.345 25.808 124.009 26.216 122.425 26.216C121.145 26.216 119.993 25.936 118.969 25.376C117.961 24.8 117.169 23.992 116.593 22.952C116.033 21.912 115.753 20.712 115.753 19.352C115.753 17.976 116.033 16.768 116.593 15.728C117.153 14.688 117.937 13.888 118.945 13.328C119.953 12.768 121.113 12.488 122.425 12.488C123.689 12.488 124.817 12.76 125.809 13.304C126.817 13.848 127.593 14.624 128.137 15.632C128.697 16.624 128.977 17.768 128.977 19.064ZM125.497 18.104C125.481 17.24 125.169 16.552 124.561 16.04C123.953 15.512 123.209 15.248 122.329 15.248C121.497 15.248 120.793 15.504 120.217 16.016C119.657 16.512 119.313 17.208 119.185 18.104H125.497ZM134.789 14.768C135.221 14.064 135.781 13.512 136.469 13.112C137.173 12.712 137.973 12.512 138.869 12.512V16.04H137.981C136.925 16.04 136.125 16.288 135.581 16.784C135.053 17.28 134.789 18.144 134.789 19.376V26H131.429V12.704H134.789V14.768ZM145.045 15.464V21.896C145.045 22.344 145.149 22.672 145.357 22.88C145.581 23.072 145.949 23.168 146.461 23.168H148.021V26H145.909C143.077 26 141.661 24.624 141.661 21.872V15.464H140.077V12.704H141.661V9.416H145.045V12.704H148.021V15.464H145.045ZM153.797 8.24V26H150.437V8.24H153.797ZM169.477 19.064C169.477 19.544 169.445 19.976 169.381 20.36H159.661C159.741 21.32 160.077 22.072 160.669 22.616C161.261 23.16 161.989 23.432 162.853 23.432C164.101 23.432 164.989 22.896 165.517 21.824H169.141C168.757 23.104 168.021 24.16 166.933 24.992C165.845 25.808 164.509 26.216 162.925 26.216C161.645 26.216 160.493 25.936 159.469 25.376C158.461 24.8 157.669 23.992 157.093 22.952C156.533 21.912 156.253 20.712 156.253 19.352C156.253 17.976 156.533 16.768 157.093 15.728C157.653 14.688 158.437 13.888 159.445 13.328C160.453 12.768 161.613 12.488 162.925 12.488C164.189 12.488 165.317 12.76 166.309 13.304C167.317 13.848 168.093 14.624 168.637 15.632C169.197 16.624 169.477 17.768 169.477 19.064ZM165.997 18.104C165.981 17.24 165.669 16.552 165.061 16.04C164.453 15.512 163.709 15.248 162.829 15.248C161.997 15.248 161.293 15.504 160.717 16.016C160.157 16.512 159.813 17.208 159.685 18.104H165.997Z" fill="white"/>
</svg>
